<svg width="26" height="28" viewBox="0 0 26 28" fill="none" xmlns="http://www.w3.org/2000/svg">
<ellipse cx="13" cy="14" rx="13" ry="11" fill="url(#paint0_linear_1_4)"/>
<path d="M17.032 8.272C17.032 8.82933 16.9073 9.284 16.658 9.636C16.4233 9.97333 16.0787 10.142 15.624 10.142C15.2133 10.142 14.8467 9.988 14.524 9.68C14.7293 9.53333 14.8833 9.32067 14.986 9.042C15.1033 8.76333 15.162 8.47733 15.162 8.184C15.162 7.72933 15.0153 7.35533 14.722 7.062C14.4287 6.76867 13.9813 6.622 13.38 6.622C12.72 6.622 12.2433 6.80533 11.95 7.172C11.6567 7.53867 11.51 8.03 11.51 8.646C11.51 9.36467 11.6787 9.95133 12.016 10.406C12.368 10.8607 12.8007 11.2713 13.314 11.638C13.8273 11.99 14.3773 12.3273 14.964 12.65C15.5653 12.9727 16.1227 13.354 16.636 13.794C17.1493 14.234 17.5747 14.7693 17.912 15.4C18.264 16.016 18.44 16.808 18.44 17.776C18.44 18.5973 18.3007 19.3013 18.022 19.888C17.758 20.4747 17.3913 20.9587 16.922 21.34C16.4527 21.7067 15.8953 21.9707 15.25 22.132C14.6047 22.308 13.9007 22.396 13.138 22.396C12.4633 22.396 11.796 22.3227 11.136 22.176C10.4907 22.044 9.91133 21.824 9.398 21.516C8.89933 21.1933 8.496 20.7753 8.188 20.262C7.88 19.734 7.726 19.096 7.726 18.348C7.726 17.8493 7.792 17.3947 7.924 16.984C8.07067 16.5733 8.26133 16.2287 8.496 15.95C8.74533 15.6713 9.03133 15.4587 9.354 15.312C9.67667 15.1507 10.014 15.07 10.366 15.07C10.542 15.07 10.7327 15.092 10.938 15.136C11.1433 15.18 11.3487 15.2607 11.554 15.378C11.7593 15.4807 11.95 15.6273 12.126 15.818C12.302 16.0087 12.4413 16.2433 12.544 16.522C12.28 16.522 12.016 16.5513 11.752 16.61C11.488 16.6687 11.246 16.7713 11.026 16.918C10.8207 17.0647 10.652 17.27 10.52 17.534C10.388 17.7833 10.322 18.106 10.322 18.502C10.322 19.2647 10.5567 19.8147 11.026 20.152C11.4953 20.4747 12.082 20.636 12.786 20.636C13.49 20.636 14.0327 20.4673 14.414 20.13C14.7953 19.7927 14.986 19.2133 14.986 18.392C14.986 17.6293 14.8247 16.984 14.502 16.456C14.194 15.928 13.798 15.466 13.314 15.07C12.83 14.674 12.3093 14.3073 11.752 13.97C11.2093 13.618 10.696 13.244 10.212 12.848C9.728 12.4373 9.32467 11.9607 9.002 11.418C8.694 10.8753 8.54 10.208 8.54 9.416C8.54 8.14 8.96533 7.172 9.816 6.512C10.6667 5.83733 11.8253 5.5 13.292 5.5C13.4973 5.5 13.8053 5.522 14.216 5.566C14.6413 5.59533 15.0593 5.70533 15.47 5.896C15.8953 6.072 16.262 6.35067 16.57 6.732C16.878 7.09867 17.032 7.612 17.032 8.272Z" fill="white"/>
<defs>
<linearGradient id="paint0_linear_1_4" x1="6.5" y1="9" x2="17" y2="22" gradientUnits="userSpaceOnUse">
<stop stop-color="#3B82F6"/>
<stop offset="1" stop-color="#234C90"/>
</linearGradient>
</defs>
</svg>
